<svg xmlns="http://www.w3.org/2000/svg" xmlns:xlink="http://www.w3.org/1999/xlink" width="133" zoomAndPan="magnify" viewBox="0 0 99.75 32.249999" height="43" preserveAspectRatio="xMidYMid meet" version="1.0"><defs><g/><clipPath id="c10b4886dd"><path d="M 1.011719 0 L 98.496094 0 L 98.496094 31.515625 L 1.011719 31.515625 Z M 1.011719 0 " clip-rule="nonzero"/></clipPath></defs><g clip-path="url(#c10b4886dd)"><path fill="#ffffff" d="M 1.011719 0 L 98.738281 0 L 98.738281 70.539062 L 1.011719 70.539062 Z M 1.011719 0 " fill-opacity="1" fill-rule="nonzero"/><path fill="#ffffff" d="M 1.011719 0 L 98.738281 0 L 98.738281 31.597656 L 1.011719 31.597656 Z M 1.011719 0 " fill-opacity="1" fill-rule="nonzero"/><path fill="#ffffff" d="M 1.011719 0 L 98.738281 0 L 98.738281 31.597656 L 1.011719 31.597656 Z M 1.011719 0 " fill-opacity="1" fill-rule="nonzero"/></g><g fill="#000000" fill-opacity="1"><g transform="translate(5.575777, 22.516051)"><g><path d="M 7.015625 -13.09375 C 7.742188 -13.09375 8.460938 -13.007812 9.171875 -12.84375 C 9.878906 -12.675781 10.410156 -12.507812 10.765625 -12.34375 L 11.28125 -12.09375 L 9.84375 -9.21875 C 8.851562 -9.75 7.910156 -10.015625 7.015625 -10.015625 C 6.523438 -10.015625 6.175781 -9.960938 5.96875 -9.859375 C 5.757812 -9.753906 5.65625 -9.550781 5.65625 -9.25 C 5.65625 -9.1875 5.660156 -9.117188 5.671875 -9.046875 C 5.691406 -8.984375 5.726562 -8.921875 5.78125 -8.859375 C 5.832031 -8.804688 5.875 -8.757812 5.90625 -8.71875 C 5.945312 -8.675781 6.019531 -8.628906 6.125 -8.578125 C 6.226562 -8.523438 6.304688 -8.488281 6.359375 -8.46875 C 6.421875 -8.445312 6.515625 -8.410156 6.640625 -8.359375 C 6.773438 -8.304688 6.875 -8.265625 6.9375 -8.234375 C 7.007812 -8.210938 7.125 -8.175781 7.28125 -8.125 C 7.4375 -8.082031 7.554688 -8.050781 7.640625 -8.03125 C 8.148438 -7.882812 8.59375 -7.71875 8.96875 -7.53125 C 9.351562 -7.351562 9.753906 -7.109375 10.171875 -6.796875 C 10.597656 -6.484375 10.925781 -6.085938 11.15625 -5.609375 C 11.382812 -5.128906 11.5 -4.582031 11.5 -3.96875 C 11.5 -1.070312 9.492188 0.375 5.484375 0.375 C 4.566406 0.375 3.695312 0.234375 2.875 -0.046875 C 2.0625 -0.328125 1.472656 -0.609375 1.109375 -0.890625 L 0.578125 -1.34375 L 2.359375 -4.34375 C 2.484375 -4.226562 2.65625 -4.085938 2.875 -3.921875 C 3.09375 -3.765625 3.484375 -3.550781 4.046875 -3.28125 C 4.609375 -3.007812 5.09375 -2.875 5.5 -2.875 C 6.414062 -2.875 6.875 -3.179688 6.875 -3.796875 C 6.875 -4.078125 6.753906 -4.296875 6.515625 -4.453125 C 6.285156 -4.609375 5.894531 -4.785156 5.34375 -4.984375 C 4.789062 -5.179688 4.359375 -5.363281 4.046875 -5.53125 C 3.253906 -5.945312 2.625 -6.414062 2.15625 -6.9375 C 1.695312 -7.457031 1.46875 -8.144531 1.46875 -9 C 1.46875 -10.289062 1.96875 -11.296875 2.96875 -12.015625 C 3.96875 -12.734375 5.316406 -13.09375 7.015625 -13.09375 Z M 7.015625 -13.09375 "/></g></g></g><g fill="#000000" fill-opacity="1"><g transform="translate(17.772358, 22.516051)"><g><path d="M 14.578125 -11.140625 C 15.765625 -9.847656 16.359375 -8.257812 16.359375 -6.375 C 16.359375 -4.488281 15.765625 -2.890625 14.578125 -1.578125 C 13.390625 -0.273438 11.878906 0.375 10.046875 0.375 C 8.359375 0.375 6.96875 -0.15625 5.875 -1.21875 L 5.875 6.453125 L 1.484375 6.453125 L 1.484375 -12.71875 L 5.828125 -12.71875 L 5.828125 -11.28125 L 5.875 -11.28125 C 6.96875 -12.488281 8.359375 -13.09375 10.046875 -13.09375 C 11.878906 -13.09375 13.390625 -12.441406 14.578125 -11.140625 Z M 10.84375 -4.21875 C 11.414062 -4.78125 11.703125 -5.5 11.703125 -6.375 C 11.703125 -7.25 11.425781 -7.960938 10.875 -8.515625 C 10.332031 -9.066406 9.617188 -9.34375 8.734375 -9.34375 C 7.867188 -9.34375 7.160156 -9.0625 6.609375 -8.5 C 6.054688 -7.9375 5.78125 -7.226562 5.78125 -6.375 C 5.78125 -5.5 6.0625 -4.78125 6.625 -4.21875 C 7.195312 -3.65625 7.898438 -3.375 8.734375 -3.375 C 9.578125 -3.375 10.28125 -3.65625 10.84375 -4.21875 Z M 10.84375 -4.21875 "/></g></g></g><g fill="#000000" fill-opacity="1"><g transform="translate(34.70379, 22.516051)"><g><path d="M 2.359375 -1.5625 C 1.171875 -2.863281 0.578125 -4.457031 0.578125 -6.34375 C 0.578125 -8.226562 1.171875 -9.820312 2.359375 -11.125 C 3.546875 -12.4375 5.054688 -13.09375 6.890625 -13.09375 C 8.578125 -13.09375 9.96875 -12.5625 11.0625 -11.5 L 11.0625 -12.71875 L 15.453125 -12.71875 L 15.453125 0 L 11.109375 0 L 11.109375 -1.4375 L 11.0625 -1.4375 C 9.96875 -0.226562 8.578125 0.375 6.890625 0.375 C 5.054688 0.375 3.546875 -0.269531 2.359375 -1.5625 Z M 6.078125 -8.5 C 5.515625 -7.9375 5.234375 -7.21875 5.234375 -6.34375 C 5.234375 -5.46875 5.503906 -4.753906 6.046875 -4.203125 C 6.597656 -3.648438 7.316406 -3.375 8.203125 -3.375 C 9.066406 -3.375 9.773438 -3.65625 10.328125 -4.21875 C 10.878906 -4.78125 11.15625 -5.488281 11.15625 -6.34375 C 11.15625 -7.21875 10.867188 -7.9375 10.296875 -8.5 C 9.734375 -9.0625 9.035156 -9.34375 8.203125 -9.34375 C 7.359375 -9.34375 6.648438 -9.0625 6.078125 -8.5 Z M 6.078125 -8.5 "/></g></g></g><g fill="#000000" fill-opacity="1"><g transform="translate(51.635222, 22.516051)"><g><path d="M 8.25 -9.5 C 7.425781 -9.5 6.71875 -9.191406 6.125 -8.578125 C 5.53125 -7.960938 5.234375 -7.226562 5.234375 -6.375 C 5.234375 -5.5 5.53125 -4.753906 6.125 -4.140625 C 6.71875 -3.523438 7.425781 -3.21875 8.25 -3.21875 C 8.65625 -3.21875 9.035156 -3.265625 9.390625 -3.359375 C 9.742188 -3.460938 10.003906 -3.566406 10.171875 -3.671875 L 10.390625 -3.8125 L 11.875 -0.765625 C 11.757812 -0.679688 11.597656 -0.578125 11.390625 -0.453125 C 11.179688 -0.328125 10.707031 -0.160156 9.96875 0.046875 C 9.238281 0.265625 8.453125 0.375 7.609375 0.375 C 5.742188 0.375 4.101562 -0.28125 2.6875 -1.59375 C 1.28125 -2.914062 0.578125 -4.492188 0.578125 -6.328125 C 0.578125 -8.171875 1.28125 -9.757812 2.6875 -11.09375 C 4.101562 -12.425781 5.742188 -13.09375 7.609375 -13.09375 C 8.453125 -13.09375 9.226562 -12.992188 9.9375 -12.796875 C 10.65625 -12.597656 11.160156 -12.398438 11.453125 -12.203125 L 11.875 -11.90625 L 10.390625 -8.90625 C 9.847656 -9.300781 9.132812 -9.5 8.25 -9.5 Z M 8.25 -9.5 "/></g></g></g><g fill="#000000" fill-opacity="1"><g transform="translate(63.807013, 22.516051)"><g><path d="M 14.359375 -5.75 L 5.140625 -5.75 C 5.140625 -4.851562 5.425781 -4.191406 6 -3.765625 C 6.582031 -3.335938 7.210938 -3.125 7.890625 -3.125 C 8.597656 -3.125 9.15625 -3.21875 9.5625 -3.40625 C 9.976562 -3.59375 10.453125 -3.96875 10.984375 -4.53125 L 14.15625 -2.953125 C 12.832031 -0.734375 10.632812 0.375 7.5625 0.375 C 5.644531 0.375 4 -0.28125 2.625 -1.59375 C 1.257812 -2.914062 0.578125 -4.5 0.578125 -6.34375 C 0.578125 -8.195312 1.257812 -9.785156 2.625 -11.109375 C 4 -12.429688 5.644531 -13.09375 7.5625 -13.09375 C 9.582031 -13.09375 11.222656 -12.507812 12.484375 -11.34375 C 13.742188 -10.175781 14.375 -8.507812 14.375 -6.34375 C 14.375 -6.050781 14.367188 -5.851562 14.359375 -5.75 Z M 5.25 -8.1875 L 10.09375 -8.1875 C 9.988281 -8.84375 9.722656 -9.347656 9.296875 -9.703125 C 8.878906 -10.054688 8.34375 -10.234375 7.6875 -10.234375 C 6.957031 -10.234375 6.378906 -10.039062 5.953125 -9.65625 C 5.523438 -9.28125 5.289062 -8.789062 5.25 -8.1875 Z M 5.25 -8.1875 "/></g></g></g><g fill="#000000" fill-opacity="1"><g transform="translate(78.755259, 22.516051)"><g/></g></g><g fill="#000000" fill-opacity="1"><g transform="translate(85.522876, 22.516051)"><g><path d="M 4.3125 -5.3125 C 5.101562 -5.3125 5.773438 -5.03125 6.328125 -4.46875 C 6.890625 -3.914062 7.171875 -3.242188 7.171875 -2.453125 C 7.171875 -1.679688 6.890625 -1.015625 6.328125 -0.453125 C 5.773438 0.0976562 5.101562 0.375 4.3125 0.375 C 3.539062 0.375 2.875 0.0976562 2.3125 -0.453125 C 1.757812 -1.015625 1.484375 -1.679688 1.484375 -2.453125 C 1.484375 -3.242188 1.757812 -3.914062 2.3125 -4.46875 C 2.875 -5.03125 3.539062 -5.3125 4.3125 -5.3125 Z M 4.3125 -5.3125 "/></g></g></g></svg>